<svg width="78" height="55" viewBox="0 0 78 55" fill="none" xmlns="http://www.w3.org/2000/svg">
<path d="M71.125 48.125L61.1563 38.1562M36.6215 11C39.7796 8.4215 43.8134 6.875 48.2083 6.875C58.3336 6.875 66.5417 15.0831 66.5417 25.2083C66.5417 35.3336 58.3336 43.5417 48.2083 43.5417C43.8134 43.5417 39.7796 41.9952 36.6215 39.4167" stroke="#F5F5F5" stroke-width="3" stroke-linecap="round" stroke-linejoin="round"/>
<path d="M48.2 18.5V32" stroke="white" stroke-width="3" stroke-linecap="round"/>
<path d="M41.45 25.25H54.95" stroke="white" stroke-width="3" stroke-linecap="round"/>
<path d="M11.712 12.28C12.2453 12.28 12.6827 12.3867 13.024 12.6C13.3867 12.792 13.6853 13.0587 13.92 13.4C14.1547 13.72 14.3467 14.0933 14.496 14.52C14.6453 14.9467 14.7733 15.384 14.88 15.832C15.7333 19.288 16.4373 22.136 16.992 24.376C17.5467 26.616 17.984 28.4293 18.304 29.816C18.624 31.1813 18.848 32.1947 18.976 32.856C19.104 33.5173 19.168 33.976 19.168 34.232C19.168 34.5307 19.0933 34.7333 18.944 34.84C18.816 34.9467 18.6027 35 18.304 35H16.672C15.7547 35 15.0187 34.8933 14.464 34.68C13.9307 34.4453 13.5147 34.1147 13.216 33.688C12.9387 33.2613 12.736 32.7493 12.608 32.152C12.48 31.5333 12.3733 30.84 12.288 30.072H6.72L5.664 34.488C5.55733 34.8293 5.312 35 4.928 35H3.232C2.89067 35 2.53867 34.968 2.176 34.904C1.81333 34.8187 1.48267 34.6907 1.184 34.52C0.906667 34.3493 0.672 34.136 0.48 33.88C0.288 33.6027 0.192 33.272 0.192 32.888C0.192 32.4187 0.341333 31.6507 0.64 30.584C0.938667 29.5173 1.312 28.312 1.76 26.968C2.22933 25.6027 2.74133 24.184 3.296 22.712C3.872 21.2187 4.42667 19.8107 4.96 18.488C5.49333 17.1653 5.97333 16.0027 6.4 15C6.848 13.9973 7.18933 13.2933 7.424 12.888C7.59467 12.5893 7.744 12.4187 7.872 12.376C8.02133 12.312 8.288 12.28 8.672 12.28H11.712ZM7.872 25.432H11.552L10.208 16.984L7.872 25.432ZM32.1965 17.08C34.2018 17.08 35.7058 17.6987 36.7085 18.936C37.7325 20.1733 38.2445 22.1253 38.2445 24.792C38.2445 26.456 38.0525 27.9387 37.6685 29.24C37.2845 30.5413 36.7512 31.6507 36.0685 32.568C35.3858 33.464 34.5858 34.1467 33.6685 34.616C32.7512 35.0853 31.7592 35.32 30.6925 35.32C29.5618 35.32 28.6765 35.0747 28.0365 34.584C27.3965 34.0933 26.8952 33.4 26.5325 32.504C26.4685 33.272 26.4152 33.8587 26.3725 34.264C26.3298 34.6693 26.2978 34.9893 26.2765 35.224C26.2552 35.48 26.2338 35.704 26.2125 35.896C26.2125 36.088 26.1912 36.344 26.1485 36.664C26.1272 36.984 26.0952 37.4213 26.0525 37.976C26.0098 38.5307 25.9458 39.2987 25.8605 40.28C25.8392 40.536 25.7858 40.7067 25.7005 40.792C25.6152 40.8773 25.4338 40.92 25.1565 40.92H24.0045C23.3432 40.92 22.7992 40.8453 22.3725 40.696C21.9672 40.568 21.6365 40.376 21.3805 40.12C21.1458 39.864 20.9752 39.544 20.8685 39.16C20.7832 38.7973 20.7405 38.3707 20.7405 37.88C20.7405 37.6667 20.7725 37.0907 20.8365 36.152C20.9005 35.2133 20.9752 34.0933 21.0605 32.792C21.1672 31.4693 21.2738 30.0507 21.3805 28.536C21.5085 27.0213 21.6258 25.5813 21.7325 24.216C21.8392 22.8293 21.9245 21.6027 21.9885 20.536C22.0738 19.4693 22.1378 18.7333 22.1805 18.328C22.2018 17.8587 22.2552 17.5813 22.3405 17.496C22.4045 17.432 22.5752 17.4 22.8525 17.4H24.1005C25.2525 17.4 26.0845 17.6453 26.5965 18.136C27.1298 18.6053 27.3965 19.1707 27.3965 19.832C27.8872 18.8507 28.5165 18.1467 29.2845 17.72C30.0738 17.2933 31.0445 17.08 32.1965 17.08ZM29.8605 21.336C28.7725 21.336 27.9725 21.8053 27.4605 22.744C26.9485 23.6827 26.6925 24.9627 26.6925 26.584C26.6925 27.1387 26.7245 27.6827 26.7885 28.216C26.8738 28.7493 27.0125 29.2293 27.2045 29.656C27.3965 30.0827 27.6525 30.424 27.9725 30.68C28.3138 30.936 28.7405 31.064 29.2525 31.064C30.1698 31.064 30.9378 30.616 31.5565 29.72C32.1752 28.824 32.4845 27.416 32.4845 25.496C32.4845 24.9627 32.4418 24.4507 32.3565 23.96C32.2925 23.448 32.1645 23 31.9725 22.616C31.7805 22.232 31.5138 21.9227 31.1725 21.688C30.8312 21.4533 30.3938 21.336 29.8605 21.336Z" fill="#F5F5F5"/>
</svg>
